<svg xmlns="http://www.w3.org/2000/svg" xmlns:xlink="http://www.w3.org/1999/xlink" width="100.801" height="59.741" viewBox="0 0 100.801 59.741">
  <defs>
    <linearGradient id="linear-gradient" x1="0.5" y1="0.356" x2="0.5" y2="1" gradientUnits="objectBoundingBox">
      <stop offset="0" stop-color="#bfe5ff"/>
      <stop offset="0.732" stop-color="#bfe5ff" stop-opacity="0"/>
      <stop offset="1" stop-color="#bfe5ff" stop-opacity="0"/>
    </linearGradient>
    <linearGradient id="linear-gradient-2" x1="0.945" y1="-0.023" x2="0.055" y2="1" gradientUnits="objectBoundingBox">
      <stop offset="0" stop-color="#51b9ff"/>
      <stop offset="1" stop-color="#006cb5"/>
    </linearGradient>
  </defs>
  <g id="Group_12" data-name="Group 12" transform="translate(-420.991 -488.598)">
    <g id="noun_Glider_5365" transform="translate(421.193 488.598)">
      <path id="Path_72" data-name="Path 72" d="M99.64,14.2,78.5,13.724H52.76c.033-.364-.012-2.214-.195-6.656C52.36,2.058,50.3,0,50.3,0s-2.059,2.059-2.264,7.068c-.183,4.442-.23,6.292-.2,6.656H22.1L.961,14.2S0,14.341,0,15.1v1.785l18.855,1.578,16.211.892s11.9.687,12.558.687c.491,0,.638.316.682.732l.018.44h0c0,.011,0,.022,0,.033l.8,20.531-6.438.909s-1.028.343-1.028,1.1v1.238l7.468.755.588-.864.4,1.192.186.357.186-.357.4-1.192.589.863,7.469-.755V43.779c0-.754-1.031-1.1-1.031-1.1l-6.435-.909.8-20.531c0-.01,0-.021,0-.033h0l.018-.44c.042-.416.19-.732.681-.732.653,0,12.559-.687,12.559-.687l16.21-.892L100.6,16.88V15.1C100.6,14.342,99.64,14.2,99.64,14.2ZM51.574,12.135a1.314,1.314,0,0,1-2.55,0A46.448,46.448,0,0,1,49.149,6.6c.164-1.615.345-2.675,1.15-2.748.806.074.985,1.133,1.15,2.748A46.338,46.338,0,0,1,51.574,12.135Z" transform="translate(0)" fill="url(#linear-gradient)"/>
    </g>
    <path id="Intersection_1" data-name="Intersection 1" d="M69.107,16.815v-.022c0-10.13,5.779-16.37,14.876-16.37,7.294,0,12.656,4.549,13.491,11.009l.022.22H91.938l-.111-.418c-.923-3.625-3.713-5.889-7.843-5.889-5.538,0-9.075,4.416-9.075,11.448v.022c0,7.053,3.56,11.492,9.075,11.492a7.654,7.654,0,0,0,7.91-6.087l.066-.22h5.559l-.044.22c-.813,6.5-6.2,11.009-13.491,11.009C74.865,33.229,69.107,26.944,69.107,16.815Zm-9.6,15.864V10.135H59.33l-9.14,22.544H46.344L37.2,10.135h-.154V32.679H31.93V.973h6.547L48.19,25.187h.154L58.055.973H64.6V32.679Zm-48.537,0L-.018.973H6.156L14.2,26.636h.11L22.372.973h6.174L17.538,32.679ZM97.5,11.651Z" transform="translate(421.009 515.111)" fill="url(#linear-gradient-2)"/>
  </g>
</svg>
