<svg xmlns="http://www.w3.org/2000/svg" xmlns:xlink="http://www.w3.org/1999/xlink" width="153.768" height="71.012" viewBox="0 0 153.768 71.012">
  <defs>
    <linearGradient id="linear-gradient" x1="0.5" y1="0.356" x2="0.5" y2="1" gradientUnits="objectBoundingBox">
      <stop offset="0" stop-color="#bfe5ff"/>
      <stop offset="0.732" stop-color="#bfe5ff" stop-opacity="0"/>
      <stop offset="1" stop-color="#bfe5ff" stop-opacity="0"/>
    </linearGradient>
    <linearGradient id="linear-gradient-2" x1="0.945" y1="-0.023" x2="0.055" y2="1" gradientUnits="objectBoundingBox">
      <stop offset="0" stop-color="#51b9ff"/>
      <stop offset="1" stop-color="#006cb5"/>
    </linearGradient>
  </defs>
  <g id="Group_11" data-name="Group 11" transform="translate(-405.962 -486.589)">
    <g id="noun_Glider_5365" transform="translate(989.639 493.588)">
      <path id="Path_72" data-name="Path 72" d="M152.354,47.712l-32.309-.734H80.7c.051-.556-.018-3.384-.3-10.174C80.085,29.146,76.938,26,76.938,26s-3.147,3.147-3.461,10.8c-.28,6.79-.351,9.618-.3,10.174H33.826l-32.306.734s-1.469.21-1.469,1.364V51.8l28.82,2.412,24.779,1.364s18.2,1.049,19.2,1.049c.751,0,.976.482,1.042,1.119l.028.672h0c0,.017,0,.034,0,.051l1.217,31.383-9.841,1.39s-1.572.524-1.572,1.677v1.892l11.415,1.154.9-1.321.618,1.822.284.546.284-.546.616-1.822.9,1.319,11.416-1.154V92.918c0-1.153-1.577-1.677-1.577-1.677l-9.837-1.39,1.217-31.383c0-.015,0-.032,0-.051h0l.028-.672c.065-.636.29-1.119,1.04-1.119,1,0,19.2-1.049,19.2-1.049L125,54.214,153.82,51.8V49.074C153.82,47.923,152.354,47.712,152.354,47.712ZM78.885,44.55a2.008,2.008,0,0,1-3.9,0,71,71,0,0,1,.191-8.454c.251-2.469.527-4.089,1.758-4.2,1.231.113,1.506,1.732,1.758,4.2A70.83,70.83,0,0,1,78.885,44.55Z" transform="translate(-583.729 -33)" fill="url(#linear-gradient)"/>
    </g>
    <path id="Intersection_1" data-name="Intersection 1" d="M-2095.534,2707.373v-.024c0-11.255,6.421-18.188,16.529-18.188,8.105,0,14.063,5.053,14.99,12.231l.024.244h-6.177l-.121-.463c-1.026-4.028-4.126-6.543-8.716-6.543-6.153,0-10.084,4.908-10.084,12.72v.024c0,7.837,3.956,12.768,10.084,12.768a8.5,8.5,0,0,0,8.788-6.762l.074-.244h6.177l-.049.244c-.9,7.227-6.884,12.232-14.99,12.232C-2089.138,2725.61-2095.534,2718.628-2095.534,2707.373ZM-2106.2,2725v-25.049h-.2L-2116.554,2725h-4.273l-10.156-25.049h-.171V2725h-5.689v-35.229h7.276l10.791,26.9h.171l10.791-26.9h7.276V2725Zm-53.931,0-12.207-35.229h6.861l8.935,28.516h.122l8.959-28.516h6.861L-2152.834,2725ZM-2063.992,2701.635Z" transform="translate(2601 -2170)" fill="url(#linear-gradient-2)"/>
  </g>
</svg>
